<svg width="30" height="30" viewBox="0 0 30 30" fill="none" xmlns="http://www.w3.org/2000/svg">
<g id="iconamoon:category-light">
<path id="Vector" d="M3 8.20833C3 6.827 3.54873 5.50224 4.52549 4.52549C5.50224 3.54873 6.827 3 8.20833 3H22.7917C24.173 3 25.4978 3.54873 26.4745 4.52549C27.4513 5.50224 28 6.827 28 8.20833V22.7917C28 24.173 27.4513 25.4978 26.4745 26.4745C25.4978 27.4513 24.173 28 22.7917 28H8.20833C6.827 28 5.50224 27.4513 4.52549 26.4745C3.54873 25.4978 3 24.173 3 22.7917V8.20833ZM8.20833 5.08333C7.37953 5.08333 6.58468 5.41257 5.99862 5.99862C5.41257 6.58468 5.08333 7.37953 5.08333 8.20833V22.7917C5.08333 23.6205 5.41257 24.4153 5.99862 25.0014C6.58468 25.5874 7.37953 25.9167 8.20833 25.9167H22.7917C23.6205 25.9167 24.4153 25.5874 25.0014 25.0014C25.5874 24.4153 25.9167 23.6205 25.9167 22.7917V8.20833C25.9167 7.37953 25.5874 6.58468 25.0014 5.99862C24.4153 5.41257 23.6205 5.08333 22.7917 5.08333H8.20833ZM16.5417 20.7083C16.5417 20.4321 16.6514 20.1671 16.8468 19.9718C17.0421 19.7764 17.3071 19.6667 17.5833 19.6667H22.2708C22.5471 19.6667 22.8121 19.7764 23.0074 19.9718C23.2028 20.1671 23.3125 20.4321 23.3125 20.7083C23.3125 20.9846 23.2028 21.2496 23.0074 21.4449C22.8121 21.6403 22.5471 21.75 22.2708 21.75H17.5833C17.3071 21.75 17.0421 21.6403 16.8468 21.4449C16.6514 21.2496 16.5417 20.9846 16.5417 20.7083ZM17.5833 11.3333C17.3071 11.3333 17.0421 11.4431 16.8468 11.6384C16.6514 11.8338 16.5417 12.0987 16.5417 12.375C16.5417 12.6513 16.6514 12.9162 16.8468 13.1116C17.0421 13.3069 17.3071 13.4167 17.5833 13.4167H22.2708C22.5471 13.4167 22.8121 13.3069 23.0074 13.1116C23.2028 12.9162 23.3125 12.6513 23.3125 12.375C23.3125 12.0987 23.2028 11.8338 23.0074 11.6384C22.8121 11.4431 22.5471 11.3333 22.2708 11.3333H17.5833ZM14.1542 17.8875C14.2512 17.9843 14.3281 18.0992 14.3807 18.2258C14.4332 18.3523 14.4602 18.488 14.4602 18.625C14.4602 18.762 14.4332 18.8977 14.3807 19.0242C14.3281 19.1508 14.2512 19.2657 14.1542 19.3625L11.0292 22.4875C10.9324 22.5845 10.8175 22.6615 10.6909 22.714C10.5644 22.7665 10.4287 22.7935 10.2917 22.7935C10.1547 22.7935 10.019 22.7665 9.89243 22.714C9.76588 22.6615 9.65093 22.5845 9.55417 22.4875L7.99583 20.9292C7.89898 20.8323 7.82216 20.7173 7.76974 20.5908C7.71733 20.4643 7.69035 20.3286 7.69035 20.1917C7.69035 20.0547 7.71733 19.9191 7.76974 19.7925C7.82216 19.666 7.89898 19.551 7.99583 19.4542C8.19143 19.2586 8.45672 19.1487 8.73333 19.1487C8.8703 19.1487 9.00592 19.1757 9.13247 19.2281C9.25901 19.2805 9.37398 19.3573 9.47083 19.4542L10.2917 20.2771L12.6792 17.8875C12.7759 17.7905 12.8909 17.7135 13.0174 17.661C13.144 17.6085 13.2797 17.5815 13.4167 17.5815C13.5537 17.5815 13.6894 17.6085 13.8159 17.661C13.9425 17.7135 14.0574 17.7905 14.1542 17.8875ZM14.1542 11.0292C14.251 10.9323 14.3278 10.8173 14.3803 10.6908C14.4327 10.5643 14.4596 10.4286 14.4596 10.2917C14.4596 10.1547 14.4327 10.0191 14.3803 9.89253C14.3278 9.76599 14.251 9.65102 14.1542 9.55417C14.0573 9.45732 13.9423 9.38049 13.8158 9.32808C13.6893 9.27566 13.5536 9.24868 13.4167 9.24868C13.2797 9.24868 13.1441 9.27566 13.0175 9.32808C12.891 9.38049 12.776 9.45732 12.6792 9.55417L10.2917 11.9438L9.47083 11.1208C9.27524 10.9252 9.00995 10.8154 8.73333 10.8154C8.45672 10.8154 8.19143 10.9252 7.99583 11.1208C7.80024 11.3164 7.69035 11.5817 7.69035 11.8583C7.69035 12.1349 7.80024 12.4002 7.99583 12.5958L9.55417 14.1542C9.65093 14.2512 9.76588 14.3281 9.89243 14.3807C10.019 14.4332 10.1547 14.4602 10.2917 14.4602C10.4287 14.4602 10.5644 14.4332 10.6909 14.3807C10.8175 14.3281 10.9324 14.2512 11.0292 14.1542L14.1542 11.0292Z" fill="#DDDDDD"/>
</g>
</svg>
