<svg width="30" height="30" viewBox="0 0 30 30" fill="none" xmlns="http://www.w3.org/2000/svg">
<g id="solar:home-2-bold">
<path id="Vector" d="M3.69784 10.0796L3.69835 10.0786C3.96687 9.58765 4.35423 9.1698 4.98662 8.68538C5.63037 8.19227 6.48868 7.65867 7.68453 6.91607C7.68459 6.91603 7.68465 6.91599 7.68471 6.91596L10.1845 5.36482L10.1846 5.36479C11.4493 4.57988 12.3577 4.01691 13.1218 3.64534C13.873 3.28002 14.4359 3.125 15 3.125C15.5641 3.125 16.1274 3.28004 16.8787 3.64536C17.6428 4.0169 18.5513 4.57987 19.8153 5.36471L19.8155 5.36482L22.3153 6.91596C23.5113 7.65866 24.3699 8.19227 25.0139 8.68542C25.6465 9.16987 26.0336 9.58757 26.3014 10.0782L26.302 10.0793C26.5715 10.5707 26.7198 11.1322 26.7965 11.9468C26.8744 12.7741 26.875 13.8128 26.875 15.255V17.1562C26.875 19.6115 26.8738 21.3919 26.6971 22.7505C26.5225 24.0932 26.1865 24.9292 25.5857 25.5505L25.5855 25.5507C24.9882 26.1689 24.1885 26.5124 22.9001 26.6916C21.5916 26.8736 19.8751 26.875 17.5 26.875H12.5C10.1249 26.875 8.40837 26.8736 7.09985 26.6916C5.81152 26.5124 5.01178 26.1689 4.41448 25.5507L4.41429 25.5505C3.8135 24.9292 3.47751 24.0929 3.30291 22.75C3.12624 21.3913 3.125 19.6108 3.125 17.1562V15.2537C3.125 13.8122 3.12564 12.7735 3.2035 11.9462C3.28018 11.1315 3.42847 10.5701 3.69784 10.0796ZM13.4375 22.5C13.4375 22.9144 13.6021 23.3118 13.8951 23.6049C14.1882 23.8979 14.5856 24.0625 15 24.0625C15.4144 24.0625 15.8118 23.8979 16.1049 23.6049C16.3979 23.3118 16.5625 22.9144 16.5625 22.5V18.75C16.5625 18.3356 16.3979 17.9382 16.1049 17.6451C15.8118 17.3521 15.4144 17.1875 15 17.1875C14.5856 17.1875 14.1882 17.3521 13.8951 17.6451C13.6021 17.9382 13.4375 18.3356 13.4375 18.75V22.5Z" fill="#F19A37" stroke="#F19A37" stroke-width="1.25"/>
</g>
</svg>
